<svg width="145" height="25" viewBox="0 0 145 25" fill="none" xmlns="http://www.w3.org/2000/svg">
<path d="M11.952 24.36C9.72 24.36 7.764 24.024 6.084 23.352C4.428 22.656 3.132 21.648 2.196 20.328C1.26 18.984 0.792 17.34 0.792 15.396C0.792 14.484 0.9 13.512 1.116 12.48C1.956 8.544 3.624 5.556 6.12 3.516C8.616 1.476 12.24 0.455998 16.992 0.455998C18.408 0.455998 19.668 0.563998 20.772 0.779999C21.9 0.995999 22.944 1.308 23.904 1.716L22.464 8.448C21.504 7.944 20.544 7.584 19.584 7.368C18.648 7.128 17.496 7.008 16.128 7.008C14.184 7.008 12.612 7.428 11.412 8.268C10.212 9.084 9.408 10.488 9 12.48C8.928 12.864 8.868 13.224 8.82 13.56C8.772 13.896 8.748 14.208 8.748 14.496C8.748 15.72 9.144 16.584 9.936 17.088C10.752 17.568 12.072 17.808 13.896 17.808C15.072 17.808 16.224 17.7 17.352 17.484C18.504 17.244 19.668 16.884 20.844 16.404L19.404 23.172C18.276 23.556 17.112 23.844 15.912 24.036C14.736 24.252 13.416 24.36 11.952 24.36ZM21.4318 24L26.3278 0.815998H34.0678L29.1718 24H21.4318ZM32.0842 24L36.9802 0.815998H43.4962L48.8602 11.508L51.1282 0.815998H58.8682L53.9722 24H47.3842L42.0562 13.344L39.8242 24H32.0842ZM58.5965 24L67.4525 0.815998H73.7165L82.5725 24H76.5245L74.4365 18.744H66.6965L64.6445 24H58.5965ZM67.4885 14.46H73.6445L70.5485 6.396L67.4885 14.46ZM85.9399 24V0.815998H96.2719C98.0479 0.815998 99.5119 1.152 100.664 1.824C101.816 2.496 102.668 3.42 103.22 4.596C103.772 5.748 104.048 7.068 104.048 8.556C104.048 10.86 103.328 12.708 101.888 14.1C100.472 15.492 98.5519 16.188 96.1279 16.188H89.8639V24H85.9399ZM89.8639 13.092H95.4079C96.9679 13.092 98.1439 12.684 98.9359 11.868C99.7279 11.052 100.124 9.948 100.124 8.556C100.124 7.068 99.7399 5.916 98.9719 5.1C98.2279 4.284 97.0999 3.876 95.5879 3.876H89.8639V13.092ZM114.122 24.36C112.586 24.36 111.146 24.24 109.802 24C108.482 23.784 107.342 23.46 106.382 23.028V18.096C107.438 18.552 108.602 18.924 109.874 19.212C111.17 19.5 112.394 19.644 113.546 19.644C114.986 19.644 116.054 19.512 116.75 19.248C117.47 18.984 117.83 18.408 117.83 17.52C117.83 16.92 117.65 16.44 117.29 16.08C116.954 15.72 116.39 15.408 115.598 15.144C114.83 14.856 113.774 14.52 112.43 14.136C110.846 13.656 109.586 13.128 108.65 12.552C107.714 11.952 107.042 11.232 106.634 10.392C106.226 9.552 106.022 8.52 106.022 7.296C106.022 5.088 106.814 3.396 108.398 2.22C109.982 1.044 112.322 0.455998 115.418 0.455998C116.762 0.455998 118.07 0.563998 119.342 0.779999C120.614 0.971999 121.646 1.2 122.438 1.464V6.432C121.406 6.024 120.362 5.724 119.306 5.532C118.274 5.34 117.266 5.244 116.282 5.244C114.986 5.244 113.93 5.364 113.114 5.604C112.322 5.844 111.926 6.396 111.926 7.26C111.926 7.764 112.07 8.172 112.358 8.484C112.646 8.772 113.138 9.036 113.834 9.276C114.554 9.516 115.526 9.804 116.75 10.14C118.646 10.644 120.098 11.256 121.106 11.976C122.114 12.672 122.81 13.488 123.194 14.424C123.578 15.336 123.77 16.368 123.77 17.52C123.77 19.56 122.978 21.216 121.394 22.488C119.81 23.736 117.386 24.36 114.122 24.36ZM126.495 24V0.815998H144.063V6H133.263V9.78H142.731V15.036H133.263V18.816H144.063V24H126.495Z" fill="url(#paint0_radial_20_174)"/>
<defs>
<radialGradient id="paint0_radial_20_174" cx="0" cy="0" r="1" gradientUnits="userSpaceOnUse" gradientTransform="translate(116 35) rotate(-112.38) scale(64.3467 172.783)">
<stop stop-color="#9C9C9C"/>
<stop offset="0.828125" stop-color="white"/>
<stop offset="1" stop-color="#CCCCCC"/>
</radialGradient>
</defs>
</svg>
